<mxfile host="app.diagrams.net" modified="2020-09-18T03:33:33.418Z" agent="5.0 (Windows NT 10.0; WOW64) AppleWebKit/537.36 (KHTML, like Gecko) Chrome/83.0.4103.61 Safari/537.36" etag="8mKxIlp7a164bhLodXEt" version="13.7.3" type="github">
  <diagram id="DAsKykSbTj21OooRdMxO" name="第 1 页">
    <mxGraphModel dx="1422" dy="762" grid="1" gridSize="10" guides="1" tooltips="1" connect="1" arrows="1" fold="1" page="1" pageScale="1" pageWidth="827" pageHeight="1169" math="0" shadow="0">
      <root>
        <mxCell id="0" />
        <mxCell id="1" parent="0" />
        <mxCell id="VptWCZ_Wvm8wyNnVrlpc-3" value="" style="edgeStyle=orthogonalEdgeStyle;rounded=0;orthogonalLoop=1;jettySize=auto;html=1;" edge="1" parent="1" source="VptWCZ_Wvm8wyNnVrlpc-1" target="VptWCZ_Wvm8wyNnVrlpc-2">
          <mxGeometry relative="1" as="geometry" />
        </mxCell>
        <mxCell id="VptWCZ_Wvm8wyNnVrlpc-1" value="" style="whiteSpace=wrap;html=1;aspect=fixed;" vertex="1" parent="1">
          <mxGeometry x="230" y="210" width="80" height="80" as="geometry" />
        </mxCell>
        <mxCell id="VptWCZ_Wvm8wyNnVrlpc-2" value="" style="rhombus;whiteSpace=wrap;html=1;" vertex="1" parent="1">
          <mxGeometry x="390" y="210" width="80" height="80" as="geometry" />
        </mxCell>
      </root>
    </mxGraphModel>
  </diagram>
</mxfile>
